<?xml version="1.0" encoding="UTF-8" standalone="no"?>
<!DOCTYPE svg PUBLIC "-//W3C//DTD SVG 1.1//EN"
 "http://www.w3.org/Graphics/SVG/1.1/DTD/svg11.dtd">
<!-- Generated by graphviz version 2.43.0 (0)
 -->
<!-- Title: CAST Pages: 1 -->
<svg width="402pt" height="737pt"
 viewBox="0.00 0.00 402.30 737.05" xmlns="http://www.w3.org/2000/svg" xmlns:xlink="http://www.w3.org/1999/xlink">
<g id="graph0" class="graph" transform="scale(1 1) rotate(0) translate(14.4 722.65)">
<title>CAST</title>
<polygon fill="white" stroke="transparent" points="-14.4,14.4 -14.4,-722.65 387.9,-722.65 387.9,14.4 -14.4,14.4"/>
<!-- U -->
<g id="node1" class="node">
<title>U</title>
<path fill="#f4ead7" stroke="#493b53" d="M132,-708.25C132,-708.25 89,-708.25 89,-708.25 83,-708.25 77,-702.25 77,-696.25 77,-696.25 77,-684.25 77,-684.25 77,-678.25 83,-672.25 89,-672.25 89,-672.25 132,-672.25 132,-672.25 138,-672.25 144,-678.25 144,-684.25 144,-684.25 144,-696.25 144,-696.25 144,-702.25 138,-708.25 132,-708.25"/>
<text text-anchor="middle" x="110.5" y="-687.15" font-family="Arial" font-size="12.00">Designer</text>
</g>
<!-- I -->
<g id="node2" class="node">
<title>I</title>
<path fill="#f4ead7" stroke="#493b53" d="M191,-643.25C191,-643.25 30,-643.25 30,-643.25 24,-643.25 18,-637.25 18,-631.25 18,-631.25 18,-619.25 18,-619.25 18,-613.25 24,-607.25 30,-607.25 30,-607.25 191,-607.25 191,-607.25 197,-607.25 203,-613.25 203,-619.25 203,-619.25 203,-631.25 203,-631.25 203,-637.25 197,-643.25 191,-643.25"/>
<text text-anchor="middle" x="110.5" y="-622.15" font-family="Arial" font-size="12.00">Pointer or local camera adapter</text>
</g>
<!-- U&#45;&gt;I -->
<g id="edge1" class="edge">
<title>U&#45;&gt;I</title>
<path fill="none" stroke="#493b53" d="M110.5,-672.03C110.5,-665.51 110.5,-657.94 110.5,-650.86"/>
<polygon fill="#493b53" stroke="#493b53" points="112.95,-650.44 110.5,-643.44 108.05,-650.44 112.95,-650.44"/>
</g>
<!-- R -->
<g id="node3" class="node">
<title>R</title>
<path fill="#f4ead7" stroke="#493b53" d="M209,-578.25C209,-578.25 12,-578.25 12,-578.25 6,-578.25 0,-572.25 0,-566.25 0,-566.25 0,-552.25 0,-552.25 0,-546.25 6,-540.25 12,-540.25 12,-540.25 209,-540.25 209,-540.25 215,-540.25 221,-546.25 221,-552.25 221,-552.25 221,-566.25 221,-566.25 221,-572.25 215,-578.25 209,-578.25"/>
<text text-anchor="middle" x="110.5" y="-562.65" font-family="Arial" font-size="12.00">Input recorder</text>
<text text-anchor="middle" x="110.5" y="-549.65" font-family="Arial" font-size="12.00">initial snapshot + timestamped signals</text>
</g>
<!-- I&#45;&gt;R -->
<g id="edge2" class="edge">
<title>I&#45;&gt;R</title>
<path fill="none" stroke="#493b53" d="M110.5,-607.1C110.5,-600.43 110.5,-592.67 110.5,-585.39"/>
<polygon fill="#493b53" stroke="#493b53" points="112.95,-585.34 110.5,-578.34 108.05,-585.34 112.95,-585.34"/>
</g>
<!-- S -->
<g id="node4" class="node">
<title>S</title>
<path fill="#f4ead7" stroke="#493b53" d="M265.5,-511.25C265.5,-511.25 135.5,-511.25 135.5,-511.25 129.5,-511.25 123.5,-505.25 123.5,-499.25 123.5,-499.25 123.5,-487.25 123.5,-487.25 123.5,-481.25 129.5,-475.25 135.5,-475.25 135.5,-475.25 265.5,-475.25 265.5,-475.25 271.5,-475.25 277.5,-481.25 277.5,-487.25 277.5,-487.25 277.5,-499.25 277.5,-499.25 277.5,-505.25 271.5,-511.25 265.5,-511.25"/>
<text text-anchor="middle" x="200.5" y="-490.15" font-family="Arial" font-size="12.00">Scene and installed rules</text>
</g>
<!-- R&#45;&gt;S -->
<g id="edge3" class="edge">
<title>R&#45;&gt;S</title>
<path fill="none" stroke="#493b53" d="M136.05,-540.08C146.85,-532.4 159.5,-523.41 170.71,-515.43"/>
<polygon fill="#493b53" stroke="#493b53" points="172.15,-517.42 176.43,-511.36 169.31,-513.42 172.15,-517.42"/>
</g>
<!-- P -->
<g id="node9" class="node">
<title>P</title>
<path fill="#f4ead7" stroke="#493b53" d="M134.5,-174.12C134.5,-174.12 34.5,-174.12 34.5,-174.12 28.5,-174.12 22.5,-168.12 22.5,-162.12 22.5,-162.12 22.5,-150.12 22.5,-150.12 22.5,-144.12 28.5,-138.12 34.5,-138.12 34.5,-138.12 134.5,-138.12 134.5,-138.12 140.5,-138.12 146.5,-144.12 146.5,-150.12 146.5,-150.12 146.5,-162.12 146.5,-162.12 146.5,-168.12 140.5,-174.12 134.5,-174.12"/>
<text text-anchor="middle" x="84.5" y="-153.03" font-family="Arial" font-size="12.00">Deterministic replay</text>
</g>
<!-- R&#45;&gt;P -->
<g id="edge12" class="edge">
<title>R&#45;&gt;P</title>
<path fill="none" stroke="#493b53" d="M89.13,-539.92C64.53,-516.66 27.5,-474.04 27.5,-428.25 27.5,-428.25 27.5,-428.25 27.5,-293.25 27.5,-250.79 51.38,-206.26 68.23,-180.13"/>
<polygon fill="#493b53" stroke="#493b53" points="70.33,-181.41 72.13,-174.21 66.23,-178.71 70.33,-181.41"/>
</g>
<!-- A -->
<g id="node5" class="node">
<title>A</title>
<path fill="#f4ead7" stroke="#493b53" d="M288.5,-446.25C288.5,-446.25 112.5,-446.25 112.5,-446.25 106.5,-446.25 100.5,-440.25 100.5,-434.25 100.5,-434.25 100.5,-420.25 100.5,-420.25 100.5,-414.25 106.5,-408.25 112.5,-408.25 112.5,-408.25 288.5,-408.25 288.5,-408.25 294.5,-408.25 300.5,-414.25 300.5,-420.25 300.5,-420.25 300.5,-434.25 300.5,-434.25 300.5,-440.25 294.5,-446.25 288.5,-446.25"/>
<text text-anchor="middle" x="200.5" y="-430.65" font-family="Arial" font-size="12.00">Strands Agent</text>
<text text-anchor="middle" x="200.5" y="-417.65" font-family="Arial" font-size="12.00">Vertex/Gemini or optional Bedrock</text>
</g>
<!-- S&#45;&gt;A -->
<g id="edge4" class="edge">
<title>S&#45;&gt;A</title>
<path fill="none" stroke="#493b53" d="M200.5,-475.1C200.5,-468.43 200.5,-460.67 200.5,-453.39"/>
<polygon fill="#493b53" stroke="#493b53" points="202.95,-453.34 200.5,-446.34 198.05,-453.34 202.95,-453.34"/>
</g>
<!-- S&#45;&gt;P -->
<g id="edge13" class="edge">
<title>S&#45;&gt;P</title>
<path fill="none" stroke="#493b53" d="M134.66,-475.2C118.77,-468.41 103.06,-459.06 91.5,-446.25 65.03,-416.92 65.5,-400.76 65.5,-361.25 65.5,-361.25 65.5,-361.25 65.5,-293.25 65.5,-253.77 73.44,-208.47 79.05,-181.35"/>
<polygon fill="#493b53" stroke="#493b53" points="81.51,-181.56 80.56,-174.21 76.72,-180.55 81.51,-181.56"/>
</g>
<!-- E -->
<g id="node12" class="node">
<title>E</title>
<path fill="#dce8e0" stroke="#493b53" d="M345.5,-177.6C345.5,-180.24 309.19,-182.38 264.5,-182.38 219.81,-182.38 183.5,-180.24 183.5,-177.6 183.5,-177.6 183.5,-134.65 183.5,-134.65 183.5,-132.01 219.81,-129.87 264.5,-129.87 309.19,-129.87 345.5,-132.01 345.5,-134.65 345.5,-134.65 345.5,-177.6 345.5,-177.6"/>
<path fill="none" stroke="#493b53" d="M345.5,-177.6C345.5,-174.97 309.19,-172.83 264.5,-172.83 219.81,-172.83 183.5,-174.97 183.5,-177.6"/>
<text text-anchor="middle" x="264.5" y="-159.53" font-family="Arial" font-size="12.00">Durable event journal</text>
<text text-anchor="middle" x="264.5" y="-146.53" font-family="Arial" font-size="12.00">versions, tool calls, exports</text>
</g>
<!-- S&#45;&gt;E -->
<g id="edge14" class="edge">
<title>S&#45;&gt;E</title>
<path fill="none" stroke="#493b53" d="M266.34,-475.2C282.23,-468.41 297.94,-459.06 309.5,-446.25 335.97,-416.92 335.5,-400.76 335.5,-361.25 335.5,-361.25 335.5,-361.25 335.5,-293.25 335.5,-253.85 311.83,-214.56 291.82,-188.4"/>
<polygon fill="#493b53" stroke="#493b53" points="293.6,-186.69 287.36,-182.69 289.74,-189.71 293.6,-186.69"/>
</g>
<!-- T -->
<g id="node6" class="node">
<title>T</title>
<path fill="#f4ead7" stroke="#493b53" d="M254,-379.25C254,-379.25 127,-379.25 127,-379.25 121,-379.25 115,-373.25 115,-367.25 115,-367.25 115,-353.25 115,-353.25 115,-347.25 121,-341.25 127,-341.25 127,-341.25 254,-341.25 254,-341.25 260,-341.25 266,-347.25 266,-353.25 266,-353.25 266,-367.25 266,-367.25 266,-373.25 260,-379.25 254,-379.25"/>
<text text-anchor="middle" x="190.5" y="-363.65" font-family="Arial" font-size="12.00">Constrained rule tools</text>
<text text-anchor="middle" x="190.5" y="-350.65" font-family="Arial" font-size="12.00">propose / patch / validate</text>
</g>
<!-- A&#45;&gt;T -->
<g id="edge5" class="edge">
<title>A&#45;&gt;T</title>
<path fill="none" stroke="#493b53" d="M197.71,-408.14C196.67,-401.38 195.47,-393.58 194.35,-386.3"/>
<polygon fill="#493b53" stroke="#493b53" points="196.76,-385.81 193.27,-379.26 191.91,-386.55 196.76,-385.81"/>
</g>
<!-- A&#45;&gt;E -->
<g id="edge15" class="edge">
<title>A&#45;&gt;E</title>
<path fill="none" stroke="#493b53" d="M244.22,-408.11C256.13,-400.94 267.62,-391.44 274.5,-379.25 308.43,-319.13 290.08,-234.62 275.93,-189.13"/>
<polygon fill="#493b53" stroke="#493b53" points="278.26,-188.36 273.79,-182.44 273.59,-189.85 278.26,-188.36"/>
</g>
<!-- C -->
<g id="node7" class="node">
<title>C</title>
<path fill="#f4ead7" stroke="#493b53" d="M229,-312.25C229,-312.25 140,-312.25 140,-312.25 134,-312.25 128,-306.25 128,-300.25 128,-300.25 128,-288.25 128,-288.25 128,-282.25 134,-276.25 140,-276.25 140,-276.25 229,-276.25 229,-276.25 235,-276.25 241,-282.25 241,-288.25 241,-288.25 241,-300.25 241,-300.25 241,-306.25 235,-312.25 229,-312.25"/>
<text text-anchor="middle" x="184.5" y="-291.15" font-family="Arial" font-size="12.00">Candidate ruleset</text>
</g>
<!-- T&#45;&gt;C -->
<g id="edge6" class="edge">
<title>T&#45;&gt;C</title>
<path fill="none" stroke="#493b53" d="M188.8,-341.08C188.18,-334.46 187.46,-326.86 186.8,-319.78"/>
<polygon fill="#493b53" stroke="#493b53" points="189.2,-319.1 186.1,-312.36 184.32,-319.56 189.2,-319.1"/>
</g>
<!-- V -->
<g id="node8" class="node">
<title>V</title>
<path fill="#f4ead7" stroke="#493b53" d="M257,-247.25C257,-247.25 106,-247.25 106,-247.25 100,-247.25 94,-241.25 94,-235.25 94,-235.25 94,-223.25 94,-223.25 94,-217.25 100,-211.25 106,-211.25 106,-211.25 257,-211.25 257,-211.25 263,-211.25 269,-217.25 269,-223.25 269,-223.25 269,-235.25 269,-235.25 269,-241.25 263,-247.25 257,-247.25"/>
<text text-anchor="middle" x="181.5" y="-226.15" font-family="Arial" font-size="12.00">Preview and versioned install</text>
</g>
<!-- C&#45;&gt;V -->
<g id="edge7" class="edge">
<title>C&#45;&gt;V</title>
<path fill="none" stroke="#493b53" d="M183.68,-276.03C183.37,-269.51 183.01,-261.94 182.67,-254.86"/>
<polygon fill="#493b53" stroke="#493b53" points="185.1,-254.32 182.32,-247.44 180.2,-254.55 185.1,-254.32"/>
</g>
<!-- V&#45;&gt;P -->
<g id="edge8" class="edge">
<title>V&#45;&gt;P</title>
<path fill="none" stroke="#493b53" d="M158.02,-211.03C144.67,-201.25 127.85,-188.91 113.66,-178.51"/>
<polygon fill="#493b53" stroke="#493b53" points="114.86,-176.35 107.76,-174.18 111.96,-180.3 114.86,-176.35"/>
</g>
<!-- V&#45;&gt;E -->
<g id="edge16" class="edge">
<title>V&#45;&gt;E</title>
<path fill="none" stroke="#493b53" d="M201.59,-211.03C210.01,-203.82 220.06,-195.21 229.62,-187.02"/>
<polygon fill="#493b53" stroke="#493b53" points="231.45,-188.67 235.18,-182.25 228.27,-184.95 231.45,-188.67"/>
</g>
<!-- D -->
<g id="node10" class="node">
<title>D</title>
<path fill="#f4ead7" stroke="#493b53" d="M249.5,-101C249.5,-101 127.5,-101 127.5,-101 121.5,-101 115.5,-95 115.5,-89 115.5,-89 115.5,-77 115.5,-77 115.5,-71 121.5,-65 127.5,-65 127.5,-65 249.5,-65 249.5,-65 255.5,-65 261.5,-71 261.5,-77 261.5,-77 261.5,-89 261.5,-89 261.5,-95 255.5,-101 249.5,-101"/>
<text text-anchor="middle" x="188.5" y="-79.9" font-family="Arial" font-size="12.00">OLD | NEW comparison</text>
</g>
<!-- P&#45;&gt;D -->
<g id="edge9" class="edge">
<title>P&#45;&gt;D</title>
<path fill="none" stroke="#493b53" d="M109.41,-138.09C123.84,-128.22 142.13,-115.71 157.49,-105.21"/>
<polygon fill="#493b53" stroke="#493b53" points="159.04,-107.12 163.43,-101.14 156.27,-103.07 159.04,-107.12"/>
</g>
<!-- K -->
<g id="node11" class="node">
<title>K</title>
<path fill="#f4ead7" stroke="#493b53" d="M303.5,-36C303.5,-36 173.5,-36 173.5,-36 167.5,-36 161.5,-30 161.5,-24 161.5,-24 161.5,-12 161.5,-12 161.5,-6 167.5,0 173.5,0 173.5,0 303.5,0 303.5,0 309.5,0 315.5,-6 315.5,-12 315.5,-12 315.5,-24 315.5,-24 315.5,-30 309.5,-36 303.5,-36"/>
<text text-anchor="middle" x="238.5" y="-14.9" font-family="Arial" font-size="12.00">Try, keep, revert, or revise</text>
</g>
<!-- D&#45;&gt;K -->
<g id="edge10" class="edge">
<title>D&#45;&gt;K</title>
<path fill="none" stroke="#493b53" d="M202.16,-64.78C207.78,-57.7 214.38,-49.39 220.39,-41.82"/>
<polygon fill="#493b53" stroke="#493b53" points="222.42,-43.2 224.85,-36.19 218.58,-40.15 222.42,-43.2"/>
</g>
<!-- K&#45;&gt;S -->
<g id="edge11" class="edge">
<title>K&#45;&gt;S</title>
<path fill="none" stroke="#493b53" d="M275.03,-36.18C315.01,-57.81 373.5,-99.04 373.5,-155.12 373.5,-361.25 373.5,-361.25 373.5,-361.25 373.5,-402.81 365.32,-418.36 334.5,-446.25 320.37,-459.04 302.52,-468.3 284.49,-475"/>
<polygon fill="#493b53" stroke="#493b53" points="283.63,-472.71 277.85,-477.35 285.26,-477.32 283.63,-472.71"/>
</g>
</g>
</svg>
